<svg width="458" height="36" viewBox="0 0 458 36" fill="none" xmlns="http://www.w3.org/2000/svg">
<path d="M440.427 35.2203C438.213 35.2203 436.1 34.8346 434.087 34.0631C432.074 33.2581 430.297 32.1344 428.754 30.692C427.211 29.2161 425.986 27.4719 425.081 25.4593C424.175 23.4131 423.722 21.149 423.722 18.6668C423.722 16.3859 424.091 14.2055 424.829 12.1259C425.567 10.0126 426.657 8.13423 428.1 6.49061C429.542 4.847 431.337 3.53882 433.483 2.56606C435.63 1.59331 438.095 1.10693 440.879 1.10693C443.093 1.10693 445.207 1.50945 447.219 2.31449C449.232 3.08598 451.01 4.20968 452.553 5.68558C454.096 7.12793 455.32 8.87218 456.226 10.9183C457.131 12.9309 457.584 15.1783 457.584 17.6605C457.584 19.9079 457.215 22.0882 456.477 24.2014C455.739 26.3146 454.649 28.1931 453.207 29.8367C451.764 31.4803 449.97 32.7885 447.823 33.7612C445.676 34.734 443.211 35.2203 440.427 35.2203ZM441.181 33.2078C443.764 33.2078 445.911 32.6711 447.622 31.5977C449.332 30.4908 450.607 28.9645 451.446 27.019C452.318 25.04 452.754 22.7423 452.754 20.1259C452.754 17.8114 452.485 15.6311 451.949 13.585C451.412 11.5389 450.607 9.7443 449.534 8.20132C448.494 6.62479 447.186 5.40046 445.609 4.52834C444.033 3.65622 442.188 3.22015 440.074 3.22015C437.559 3.22015 435.446 3.75685 433.735 4.83023C432.024 5.90361 430.733 7.41305 429.861 9.35856C428.988 11.2705 428.552 13.5347 428.552 16.1511C428.552 18.4991 428.804 20.6961 429.307 22.7423C429.844 24.7884 430.632 26.5998 431.672 28.1763C432.745 29.7528 434.07 30.9939 435.647 31.8996C437.223 32.7717 439.068 33.2078 441.181 33.2078Z" fill="#1D1B16"/>
<path d="M391.739 34.7673C391.303 34.7673 390.951 34.717 390.682 34.6164C390.414 34.5493 390.28 34.4151 390.28 34.2139C390.28 33.8113 390.833 33.5094 391.94 33.3082C393.215 33.0734 394.087 32.6876 394.557 32.1509C395.06 31.5807 395.311 30.675 395.311 29.434V6.79231C395.311 5.6183 395.06 4.79649 394.557 4.32688C394.087 3.82374 393.215 3.45476 391.94 3.21996C390.833 3.0187 390.28 2.68327 390.28 2.21366C390.28 2.0124 390.414 1.87823 390.682 1.81114C390.951 1.71051 391.303 1.6602 391.739 1.6602C392.645 1.6602 393.366 1.67697 393.903 1.71052C394.473 1.71052 395.01 1.72729 395.513 1.76083C396.016 1.76083 396.636 1.76083 397.374 1.76083C398.012 1.76083 398.515 1.76083 398.884 1.76083C399.286 1.72729 399.722 1.71052 400.192 1.71052C400.662 1.67697 401.349 1.6602 402.255 1.6602C402.691 1.6602 403.043 1.71051 403.311 1.81114C403.58 1.87823 403.714 2.0124 403.714 2.21366C403.714 2.44846 403.58 2.64972 403.311 2.81744C403.043 2.98516 402.624 3.11933 402.054 3.21996C400.813 3.45476 400.041 3.87405 399.739 4.47783C399.471 5.04806 399.337 5.81955 399.337 6.79231V16.2012C399.337 16.3353 399.337 16.5366 399.337 16.8049C399.37 17.0397 399.454 17.1571 399.588 17.1571C399.756 17.1571 399.974 17.0565 400.242 16.8553C400.544 16.654 400.779 16.4527 400.947 16.2515L411.01 5.98727C411.278 5.71892 411.462 5.46735 411.563 5.23255C411.697 4.9642 411.764 4.71263 411.764 4.47783C411.764 3.87405 411.446 3.4883 410.808 3.32059C410.238 3.15287 409.836 3.00193 409.601 2.86775C409.366 2.73358 409.249 2.54909 409.249 2.31429C409.249 2.11303 409.383 1.97886 409.651 1.91178C409.919 1.81114 410.272 1.76083 410.708 1.76083H413.425C414.397 1.76083 415.471 1.74406 416.645 1.71052C417.819 1.67697 418.876 1.64343 419.815 1.60988C420.787 1.57634 421.374 1.55957 421.576 1.55957C421.911 1.55957 422.18 1.60988 422.381 1.71052C422.582 1.81114 422.683 1.94532 422.683 2.11303C422.683 2.34783 422.548 2.54909 422.28 2.71681C422.012 2.88453 421.592 3.0187 421.022 3.11933C419.781 3.35413 418.49 3.7231 417.148 4.22625C415.806 4.7294 414.548 5.46735 413.374 6.4401C412.167 7.4464 411.043 8.43592 410.003 9.40867C408.997 10.3479 407.991 11.3374 406.984 12.3772C405.978 13.3835 404.888 14.5408 403.714 15.849C403.513 16.0502 403.597 16.3521 403.966 16.7546L416.142 29.7358C416.88 30.5409 417.467 31.1614 417.903 31.5975C418.372 32.0335 418.875 32.3857 419.412 32.6541C419.982 32.8889 420.737 33.1069 421.676 33.3082C422.247 33.4424 422.666 33.5765 422.934 33.7107C423.203 33.8113 423.337 33.979 423.337 34.2139C423.337 34.4151 423.203 34.5493 422.934 34.6164C422.666 34.717 422.314 34.7673 421.878 34.7673C420.905 34.7673 420.066 34.7338 419.362 34.6667C418.657 34.6331 417.97 34.5996 417.299 34.5661C416.628 34.5325 415.823 34.5157 414.884 34.5157C414.247 34.5157 413.693 34.5157 413.223 34.5157C412.754 34.5493 411.949 34.5661 410.808 34.5661C410.372 34.5661 410.02 34.5325 409.752 34.4654C409.483 34.3648 409.349 34.2139 409.349 34.0126C409.349 33.6436 409.802 33.3585 410.708 33.1572C411.647 32.9224 412.117 32.587 412.117 32.1509C412.117 31.9497 412.033 31.7484 411.865 31.5472C411.731 31.3459 411.563 31.1279 411.362 30.8931L400.695 19.1194C400.494 18.9182 400.276 18.7337 400.041 18.566C399.84 18.3647 399.672 18.2641 399.538 18.2641C399.404 18.2641 399.337 18.3982 399.337 18.6666C399.337 18.9349 399.337 19.153 399.337 19.3207C399.337 20.8972 399.353 22.4067 399.387 23.849C399.454 25.2578 399.521 26.9685 399.588 28.9811C399.622 29.6855 399.722 30.3396 399.89 30.9434C400.091 31.5472 400.41 32.0503 400.846 32.4528C401.316 32.8554 401.97 33.1405 402.808 33.3082C403.379 33.4088 403.798 33.5262 404.066 33.6604C404.335 33.7946 404.469 33.979 404.469 34.2139C404.469 34.4151 404.335 34.5493 404.066 34.6164C403.798 34.717 403.446 34.7673 403.01 34.7673C402.104 34.7673 401.399 34.7338 400.896 34.6667C400.427 34.5996 399.991 34.5493 399.588 34.5157C399.219 34.4487 398.716 34.4151 398.079 34.4151C397.274 34.4151 396.553 34.4487 395.915 34.5157C395.311 34.5493 394.691 34.5996 394.054 34.6667C393.416 34.7338 392.645 34.7673 391.739 34.7673Z" fill="#1D1B16"/>
<path d="M383.991 35.3712C383.689 35.3712 383.085 35.1196 382.18 34.6164C381.308 34.1133 380.469 33.3083 379.664 32.2013C379.53 32.0336 379.11 31.5305 378.406 30.6919C377.735 29.8533 376.863 28.8135 375.79 27.5724C374.75 26.2977 373.609 24.9225 372.368 23.4466C371.127 21.9707 369.886 20.4948 368.645 19.0189C367.404 17.543 366.247 16.1845 365.173 14.9434C364.1 13.6687 363.194 12.6121 362.456 11.7735C361.752 10.9014 361.316 10.3647 361.148 10.1635C360.913 9.86157 360.712 9.66032 360.544 9.55969C360.377 9.42551 360.226 9.35843 360.091 9.35843C359.924 9.35843 359.806 9.4926 359.739 9.76094C359.672 9.99575 359.639 10.2138 359.639 10.415C359.605 12.0587 359.572 13.9538 359.538 16.1006C359.504 18.2474 359.471 20.4612 359.437 22.7422C359.404 25.0231 359.387 27.2034 359.387 29.2831C359.387 30.1887 359.605 31.0273 360.041 31.7988C360.511 32.5703 361.366 33.0735 362.607 33.3083C363.177 33.4089 363.597 33.5263 363.865 33.6605C364.133 33.7946 364.268 33.9791 364.268 34.2139C364.268 34.4152 364.133 34.5494 363.865 34.6164C363.597 34.7171 363.245 34.7674 362.808 34.7674C361.903 34.7674 361.215 34.7338 360.746 34.6668C360.309 34.6332 359.907 34.5997 359.538 34.5661C359.203 34.5326 358.716 34.5158 358.079 34.5158C357.475 34.5158 357.006 34.5326 356.67 34.5661C356.335 34.5997 355.949 34.6332 355.513 34.6668C355.077 34.7338 354.406 34.7674 353.5 34.7674C353.064 34.7674 352.712 34.7171 352.444 34.6164C352.175 34.5494 352.041 34.4152 352.041 34.2139C352.041 33.9791 352.175 33.7946 352.444 33.6605C352.712 33.5263 353.131 33.3921 353.701 33.2579C354.674 32.9896 355.379 32.5032 355.815 31.7988C356.251 31.0609 356.519 30.172 356.62 29.1321C356.754 27.8575 356.888 26.1803 357.022 24.1007C357.156 21.9874 357.274 19.6394 357.374 17.0566C357.475 14.4402 357.525 11.7568 357.525 9.00622C357.525 7.22844 357.056 5.95379 356.117 5.1823C355.211 4.41081 354.02 3.79026 352.544 3.32066C352.41 3.25357 352.108 3.1194 351.639 2.91814C351.203 2.68333 350.984 2.41499 350.984 2.1131C350.984 1.81121 351.135 1.62672 351.437 1.55964C351.739 1.45901 351.974 1.40869 352.142 1.40869C353.115 1.44224 353.903 1.47578 354.507 1.50932C355.11 1.50932 355.647 1.52609 356.117 1.55964C356.586 1.59318 357.106 1.62672 357.676 1.66027C358.247 1.66027 358.985 1.66027 359.89 1.66027C360.192 1.66027 360.427 1.74412 360.595 1.91184C360.762 2.07956 360.93 2.28082 361.098 2.51562C361.232 2.71688 361.668 3.28711 362.406 4.22632C363.177 5.13198 364.117 6.28922 365.224 7.69804C366.364 9.07331 367.605 10.5828 368.947 12.2264C370.289 13.8364 371.63 15.4633 372.972 17.1069C374.314 18.717 375.555 20.2264 376.695 21.6352C377.836 23.0105 378.775 24.151 379.513 25.0566C380.284 25.9623 380.737 26.499 380.871 26.6667C381.006 26.8009 381.19 27.0021 381.425 27.2705C381.693 27.5388 381.928 27.673 382.129 27.673C382.431 27.673 382.599 27.3208 382.633 26.6164C382.633 26.1468 382.633 25.2579 382.633 23.9497C382.666 22.608 382.683 20.9979 382.683 19.1195C382.716 17.2075 382.733 15.1446 382.733 12.9308C382.733 10.7169 382.733 8.45276 382.733 6.13828C382.7 5.46742 382.347 4.86364 381.677 4.32695C381.006 3.79026 380.385 3.4716 379.815 3.37097C379.245 3.27034 378.725 3.13617 378.255 2.96845C377.786 2.80074 377.551 2.59948 377.551 2.36467C377.551 2.16341 377.786 2.02924 378.255 1.96216C378.725 1.86153 379.178 1.81121 379.614 1.81121C379.949 1.81121 380.268 1.81121 380.57 1.81121C380.905 1.81121 381.224 1.81121 381.526 1.81121C381.861 1.81121 382.18 1.81121 382.482 1.81121C383.287 1.81121 383.924 1.81121 384.394 1.81121C384.863 1.77767 385.366 1.74413 385.903 1.71058C386.473 1.67704 387.261 1.66027 388.268 1.66027C388.704 1.66027 389.056 1.71058 389.324 1.81121C389.593 1.8783 389.727 2.01247 389.727 2.21373C389.727 2.68333 389.173 3.01876 388.066 3.22002C386.825 3.45483 386.004 3.75672 385.601 4.12569C385.199 4.49466 384.964 5.09844 384.897 5.93702C384.897 6.10474 384.88 6.75883 384.846 7.8993C384.846 9.03977 384.846 10.4821 384.846 12.2264C384.846 13.9706 384.83 15.849 384.796 17.8616C384.796 19.8742 384.796 21.8868 384.796 23.8994C384.796 25.8784 384.796 27.6562 384.796 29.2328C384.796 30.0378 384.813 30.7757 384.846 31.4466C384.913 32.0839 384.964 32.6374 384.997 33.107C385.031 33.5431 385.048 33.8785 385.048 34.1133C385.048 34.65 384.93 34.9854 384.695 35.1196C384.494 35.2873 384.259 35.3712 383.991 35.3712Z" fill="#1D1B16"/>
<path d="M326.81 34.7673C326.374 34.7673 326.022 34.717 325.754 34.6163C325.486 34.5492 325.351 34.4151 325.351 34.2138C325.351 33.8113 325.905 33.5094 327.012 33.3081C328.286 33.0733 329.226 32.6876 329.829 32.1509C330.433 31.6142 330.735 30.7421 330.735 29.5345V6.89289C330.735 5.68534 330.483 4.82999 329.98 4.32684C329.511 3.82369 328.639 3.45472 327.364 3.21991C326.794 3.11929 326.374 2.98511 326.106 2.8174C325.838 2.64968 325.704 2.44842 325.704 2.21362C325.704 2.01236 325.838 1.87819 326.106 1.8111C326.374 1.71047 326.727 1.66016 327.163 1.66016C328.437 1.66016 329.511 1.67693 330.383 1.71047C331.289 1.74402 332.161 1.77756 332.999 1.8111C333.871 1.8111 334.894 1.8111 336.068 1.8111C337.175 1.8111 338.333 1.8111 339.54 1.8111C340.781 1.77756 341.922 1.76079 342.962 1.76079C344.102 1.72724 345.058 1.71047 345.829 1.71047C346.635 1.67693 347.104 1.66016 347.238 1.66016C347.406 1.66016 347.591 1.6937 347.792 1.76079C347.993 1.82787 348.11 1.94527 348.144 2.11299C348.312 3.0522 348.479 3.99141 348.647 4.93062C348.815 5.83628 348.899 6.62455 348.899 7.29541C348.899 7.5973 348.815 7.79856 348.647 7.89919C348.513 7.99982 348.362 8.05013 348.194 8.05013C348.027 8.05013 347.909 8.01659 347.842 7.9495C347.775 7.84887 347.708 7.7147 347.641 7.54699C347.473 6.97675 347.305 6.44006 347.138 5.93691C346.97 5.40022 346.769 5.01447 346.534 4.77967C346.064 4.24298 345.544 3.89078 344.974 3.72306C344.404 3.5218 343.8 3.42117 343.163 3.42117H336.572C336.303 3.42117 335.934 3.57212 335.465 3.87401C334.995 4.1759 334.76 4.56164 334.76 5.03125V15.698C334.76 15.9999 334.844 16.2682 335.012 16.503C335.213 16.7043 335.431 16.8049 335.666 16.8049H340.647C341.62 16.8049 342.291 16.6372 342.66 16.3018C343.029 15.9328 343.331 15.2787 343.565 14.3395C343.767 13.6015 344.068 13.2326 344.471 13.2326C344.605 13.2326 344.739 13.2996 344.874 13.4338C345.041 13.568 345.125 13.7692 345.125 14.0376C345.125 14.1718 345.108 14.4736 345.075 14.9433C345.075 15.4129 345.058 15.8992 345.024 16.4024C344.991 16.9055 344.974 17.2913 344.974 17.5596C344.974 17.8951 344.974 18.3479 344.974 18.9181C345.008 19.4548 345.024 19.9747 345.024 20.4779C345.058 20.981 345.075 21.2997 345.075 21.4339C345.075 21.6687 345.041 21.8699 344.974 22.0376C344.941 22.2054 344.823 22.2892 344.622 22.2892C344.119 22.2892 343.733 21.7525 343.465 20.6791C343.263 19.9076 342.995 19.3374 342.66 18.9684C342.324 18.5995 341.821 18.415 341.15 18.415H336.471C335.901 18.415 335.465 18.4988 335.163 18.6665C334.894 18.8007 334.76 19.1529 334.76 19.7232V29.3836C334.76 30.6582 335.029 31.5471 335.565 32.0503C336.102 32.5199 336.941 32.7547 338.081 32.7547H341.804C342.878 32.7547 343.767 32.7044 344.471 32.6037C345.209 32.4696 345.846 32.2348 346.383 31.8993C346.92 31.5304 347.389 31.044 347.792 30.4402C348.228 29.8364 348.714 29.0314 349.251 28.0251C349.352 27.8238 349.469 27.6561 349.603 27.5219C349.737 27.3878 349.888 27.3375 350.056 27.371C350.224 27.4045 350.358 27.4884 350.458 27.6226C350.559 27.7232 350.609 27.8742 350.609 28.0754C350.609 28.3773 350.526 28.914 350.358 29.6855C350.19 30.4234 349.972 31.1949 349.704 32C349.469 32.805 349.251 33.4423 349.05 33.9119C348.949 34.1467 348.848 34.348 348.748 34.5157C348.681 34.6834 348.546 34.7673 348.345 34.7673C346.735 34.7673 345.242 34.7505 343.867 34.717C342.492 34.6834 341.184 34.6499 339.943 34.6163C338.702 34.5828 337.477 34.5492 336.27 34.5157C335.096 34.4822 333.871 34.4654 332.597 34.4654C331.859 34.4654 331.221 34.4822 330.685 34.5157C330.148 34.5828 329.595 34.6331 329.024 34.6666C328.454 34.7337 327.716 34.7673 326.81 34.7673Z" fill="#1D1B16"/>
<path d="M299.904 34.7674C299.468 34.7674 299.116 34.7171 298.848 34.6164C298.579 34.5494 298.445 34.4152 298.445 34.2139C298.445 33.8114 298.999 33.5095 300.106 33.3083C301.38 33.0735 302.303 32.6877 302.873 32.151C303.477 31.6143 303.779 30.7254 303.779 29.4843V8.2515C303.779 6.74206 303.577 5.58482 303.175 4.77978C302.806 3.97475 301.984 3.45483 300.709 3.22002C300.139 3.1194 299.72 2.98522 299.452 2.8175C299.183 2.64979 299.049 2.44853 299.049 2.21373C299.049 2.01247 299.183 1.8783 299.452 1.81121C299.72 1.71058 300.072 1.66027 300.508 1.66027C301.414 1.66027 302.085 1.66027 302.521 1.66027C302.99 1.66027 303.426 1.67704 303.829 1.71058C304.231 1.71058 304.768 1.71058 305.439 1.71058C306.11 1.71058 306.781 1.69381 307.452 1.66027C308.156 1.59318 308.81 1.54287 309.414 1.50932C310.018 1.44224 310.554 1.40869 311.024 1.40869C314.848 1.40869 317.917 2.19696 320.232 3.77349C322.58 5.35002 323.754 7.5471 323.754 10.3647C323.754 12.4109 323.351 14.306 322.546 16.0503C321.741 17.761 320.5 19.1363 318.823 20.1761C317.179 21.2159 315.066 21.7359 312.483 21.7359C311.745 21.7359 311.175 21.6352 310.772 21.434C310.403 21.1992 310.219 20.9811 310.219 20.7799C310.219 20.6457 310.303 20.4948 310.471 20.327C310.672 20.1593 310.856 20.0755 311.024 20.0755C311.192 20.0755 311.443 20.0922 311.779 20.1258C312.148 20.1593 312.668 20.1761 313.338 20.1761C315.351 20.1761 316.86 19.3375 317.867 17.6604C318.907 15.9832 319.427 13.6687 319.427 10.7169C319.427 8.03347 318.638 6.05442 317.062 4.77978C315.485 3.4716 313.473 2.8175 311.024 2.8175C310.085 2.8175 309.313 2.98522 308.709 3.32066C308.106 3.62254 307.804 4.15923 307.804 4.93073V28.9309C307.804 30.1384 308.055 31.1112 308.559 31.8491C309.062 32.5871 309.934 33.0735 311.175 33.3083C311.745 33.4089 312.164 33.5263 312.433 33.6605C312.701 33.7946 312.835 33.9791 312.835 34.2139C312.835 34.4152 312.701 34.5494 312.433 34.6164C312.164 34.7171 311.812 34.7674 311.376 34.7674C310.471 34.7674 309.766 34.7338 309.263 34.6668C308.793 34.5997 308.357 34.5494 307.955 34.5158C307.586 34.4487 307.083 34.4152 306.445 34.4152C305.607 34.4152 304.852 34.4487 304.181 34.5158C303.544 34.5494 302.89 34.5997 302.219 34.6668C301.582 34.7338 300.81 34.7674 299.904 34.7674Z" fill="#1D1B16"/>
<path d="M285.623 35.321C284.214 35.321 282.906 35.1029 281.698 34.6669C280.524 34.2644 279.468 33.6774 278.528 32.9059C278.394 32.7717 278.26 32.6208 278.126 32.453C278.025 32.2853 277.941 32.1008 277.874 31.8996C277.707 31.2287 277.589 30.3566 277.522 29.2832C277.489 28.2098 277.438 27.3209 277.371 26.6165C277.371 26.3817 277.472 26.214 277.673 26.1134C277.874 25.9792 278.109 25.9121 278.377 25.9121C278.545 25.9121 278.713 25.9624 278.881 26.0631C279.048 26.1301 279.149 26.2643 279.182 26.4656C279.853 29.0484 280.843 30.8933 282.151 32.0002C283.493 33.1071 284.885 33.6606 286.327 33.6606C287.501 33.6606 288.541 33.409 289.447 32.9059C290.352 32.4027 291.057 31.6983 291.56 30.7926C292.097 29.8534 292.365 28.7633 292.365 27.5222C292.365 26.1469 292.13 25.04 291.661 24.2014C291.224 23.3293 290.587 22.5746 289.749 21.9372C288.91 21.2999 287.887 20.6123 286.679 19.8743C285.371 19.0358 284.08 18.1972 282.805 17.3586C281.53 16.4865 280.474 15.497 279.635 14.39C278.797 13.2496 278.377 11.8743 278.377 10.2642C278.377 8.55352 278.763 7.01053 279.535 5.63526C280.306 4.25999 281.463 3.16984 283.006 2.3648C284.583 1.52622 286.545 1.10693 288.893 1.10693C290.101 1.10693 291.141 1.24111 292.013 1.50945C292.918 1.74426 293.64 1.97906 294.176 2.21386C294.445 2.31449 294.663 2.4822 294.83 2.71701C295.032 2.95181 295.166 3.20338 295.233 3.47173C295.434 4.17614 295.652 4.98117 295.887 5.88684C296.122 6.7925 296.239 7.64785 296.239 8.45289C296.239 8.82187 295.988 9.00635 295.484 9.00635C295.183 9.00635 294.881 8.93927 294.579 8.80509C294.31 8.67092 294.143 8.5032 294.076 8.30195C293.371 6.52416 292.549 5.16566 291.61 4.22645C290.671 3.28724 289.48 2.81763 288.038 2.81763C287.032 2.81763 286.092 3.00212 285.22 3.3711C284.348 3.74007 283.627 4.34385 283.057 5.18243C282.52 6.02101 282.252 7.14471 282.252 8.55352C282.252 9.55982 282.57 10.4823 283.208 11.3208C283.879 12.1259 284.751 12.8974 285.824 13.6353C286.897 14.3733 288.055 15.128 289.296 15.8995C290.47 16.6039 291.61 17.3754 292.717 18.214C293.858 19.0525 294.78 20.0588 295.484 21.2328C296.222 22.3733 296.591 23.7821 296.591 25.4593C296.591 27.4383 296.139 29.1826 295.233 30.692C294.327 32.1679 293.053 33.3084 291.409 34.1134C289.765 34.9185 287.837 35.321 285.623 35.321Z" fill="#1D1B16"/>
<path d="M258.438 35.2201C255.453 35.2201 252.954 34.7002 250.942 33.6604C248.929 32.587 247.42 31.0943 246.413 29.1823C245.407 27.2368 244.904 24.9894 244.904 22.4402V6.99352C244.904 5.78597 244.652 4.91385 244.149 4.37715C243.679 3.80692 243.16 3.45472 242.589 3.32055C241.482 3.01866 240.929 2.64968 240.929 2.21362C240.929 2.01236 241.063 1.87819 241.331 1.8111C241.6 1.71047 241.952 1.66016 242.388 1.66016C243.16 1.66016 243.914 1.6937 244.652 1.76079C245.424 1.79433 246.279 1.8111 247.218 1.8111C247.99 1.8111 248.711 1.79433 249.382 1.76079C250.086 1.72724 250.707 1.71047 251.243 1.71047C251.68 1.71047 252.032 1.76079 252.3 1.86142C252.568 1.9285 252.703 2.06268 252.703 2.26394C252.703 2.49874 252.568 2.68322 252.3 2.8174C252.032 2.95157 251.612 3.10251 251.042 3.27023C250.64 3.4044 250.187 3.79015 249.684 4.42747C249.181 5.06479 248.929 5.8866 248.929 6.89289V21.0313C248.929 23.7148 249.382 25.9286 250.288 27.6729C251.193 29.3836 252.434 30.6582 254.011 31.4968C255.621 32.3019 257.449 32.7044 259.495 32.7044C262.95 32.7044 265.483 31.5136 267.093 29.132C268.703 26.7169 269.508 23.5471 269.508 19.6225C269.508 18.8846 269.491 17.9118 269.457 16.7043C269.457 15.4967 269.441 14.2053 269.407 12.83C269.374 11.4212 269.34 10.0795 269.306 8.80485C269.306 7.93273 269.223 7.11092 269.055 6.33943C268.921 5.56794 268.703 4.91385 268.401 4.37715C268.099 3.80692 267.713 3.45472 267.244 3.32055C266.908 3.21992 266.539 3.08574 266.137 2.91803C265.768 2.75031 265.583 2.54905 265.583 2.31425C265.583 2.11299 265.717 1.97882 265.986 1.91173C266.254 1.8111 266.606 1.76079 267.042 1.76079C267.814 1.76079 268.451 1.77756 268.954 1.8111C269.457 1.8111 270.078 1.8111 270.816 1.8111C271.353 1.8111 271.856 1.8111 272.325 1.8111C272.795 1.77756 273.248 1.74402 273.684 1.71047C274.12 1.67693 274.522 1.66016 274.891 1.66016C275.327 1.66016 275.68 1.71047 275.948 1.8111C276.216 1.87819 276.351 2.01236 276.351 2.21362C276.351 2.64968 275.797 2.98511 274.69 3.21991C273.818 3.38763 273.197 3.80692 272.829 4.47779C272.46 5.14865 272.242 5.98723 272.174 6.99352C272.007 9.87824 271.889 12.5114 271.822 14.8929C271.789 17.2745 271.738 19.6225 271.671 21.937C271.604 24.5198 270.984 26.8175 269.81 28.8301C268.636 30.8427 267.059 32.4193 265.08 33.5597C263.135 34.6666 260.921 35.2201 258.438 35.2201Z" fill="#1D1B16"/>
<path d="M199.189 34.7675C198.753 34.7675 198.401 34.7004 198.133 34.5662C197.864 34.4656 197.73 34.3147 197.73 34.1134C197.73 33.8786 197.864 33.6773 198.133 33.5096C198.434 33.3084 198.854 33.1239 199.39 32.9562C200.263 32.6878 201.068 32.2853 201.806 31.7486C202.543 31.2119 203.181 30.323 203.717 29.0819C204.657 26.9352 205.512 24.9226 206.284 23.0442C207.089 21.1657 207.843 19.3209 208.548 17.5095C209.252 15.6982 209.973 13.8198 210.711 11.8743C211.483 9.89524 212.288 7.74848 213.126 5.434C213.294 4.96439 213.445 4.49479 213.579 4.02518C213.713 3.55558 213.797 3.05243 213.831 2.51574C214.133 2.41511 214.435 2.31448 214.736 2.21385C215.038 2.11322 215.34 1.96228 215.642 1.76102C215.944 1.55976 216.145 1.25787 216.246 0.855353C216.38 0.452834 216.497 0.184487 216.598 0.0503139C216.632 0.0167712 216.665 0 216.699 0C216.766 0 216.816 0.0335448 216.85 0.100632C216.917 0.234805 216.967 0.40252 217.001 0.603779C217.068 0.805037 217.135 1.0063 217.202 1.20755C218.007 3.75684 218.845 6.35643 219.718 9.00634C220.59 11.6563 221.428 14.2223 222.233 16.7045C223.072 19.1532 223.827 21.367 224.498 23.3461C225.202 25.2916 225.755 26.8681 226.158 28.0756C226.627 29.4174 227.131 30.4237 227.667 31.0945C228.204 31.7654 228.757 32.235 229.328 32.5033C229.931 32.7717 230.569 32.9729 231.24 33.1071C231.81 33.2077 232.229 33.3755 232.498 33.6103C232.766 33.8115 232.9 34.0296 232.9 34.2644C232.9 34.4656 232.766 34.5998 232.498 34.6669C232.229 34.734 231.877 34.7675 231.441 34.7675C230.971 34.7675 230.334 34.734 229.529 34.6669C228.724 34.6333 227.869 34.583 226.963 34.5159C226.057 34.4824 225.219 34.4656 224.447 34.4656C223.81 34.4656 223.156 34.4656 222.485 34.4656C221.814 34.4656 221.193 34.4824 220.623 34.5159C220.053 34.5159 219.567 34.5159 219.164 34.5159C218.728 34.5159 218.376 34.4656 218.108 34.365C217.839 34.2644 217.705 34.1134 217.705 33.9122C217.705 33.6774 217.873 33.4761 218.208 33.3084C218.544 33.1407 218.929 33.0233 219.365 32.9562C220.472 32.7885 221.261 32.5033 221.73 32.1008C222.2 31.6983 222.435 31.2287 222.435 30.692C222.435 30.1889 222.317 29.4677 222.082 28.5285C221.881 27.5557 221.63 26.5327 221.328 25.4593C221.026 24.3523 220.741 23.3796 220.472 22.541C220.405 22.2727 220.271 22.1217 220.07 22.0882C219.902 22.0211 219.583 21.9876 219.114 21.9876H209.604C209.47 21.9876 209.319 22.0546 209.151 22.1888C209.017 22.2894 208.883 22.5242 208.749 22.8932C208.648 23.2287 208.481 23.7653 208.246 24.5033C208.011 25.2077 207.776 25.9624 207.541 26.7675C207.307 27.5725 207.105 28.2937 206.938 28.931C206.77 29.5683 206.686 29.9708 206.686 30.1385C206.686 30.8765 206.971 31.497 207.541 32.0002C208.112 32.4698 208.799 32.8052 209.604 33.0065C210.711 33.3084 211.265 33.6438 211.265 34.0128C211.265 34.214 211.131 34.365 210.862 34.4656C210.594 34.5327 210.242 34.5662 209.806 34.5662C209.37 34.5662 208.732 34.5495 207.894 34.5159C207.055 34.4824 206.166 34.4656 205.227 34.4656C204.12 34.4656 203.047 34.5159 202.007 34.6166C200.967 34.7172 200.028 34.7675 199.189 34.7675ZM210.963 20.3272H218.762C219.231 20.3272 219.466 20.2433 219.466 20.0756C219.466 20.0085 219.449 19.9414 219.416 19.8743C219.416 19.7737 219.399 19.6731 219.365 19.5724L215.441 7.29564C215.24 6.69187 215.089 6.38998 214.988 6.38998C214.921 6.38998 214.787 6.67509 214.585 7.24533L210.007 19.5724C209.94 19.7737 209.906 19.9079 209.906 19.975C209.906 20.1427 209.99 20.2433 210.158 20.2769C210.359 20.3104 210.627 20.3272 210.963 20.3272Z" fill="#1D1B16"/>
<path d="M193.101 35.3712C192.8 35.3712 192.196 35.1196 191.29 34.6164C190.418 34.1133 189.579 33.3083 188.774 32.2013C188.64 32.0336 188.221 31.5305 187.516 30.6919C186.846 29.8533 185.973 28.8135 184.9 27.5724C183.86 26.2977 182.72 24.9225 181.479 23.4466C180.238 21.9707 178.997 20.4948 177.755 19.0189C176.514 17.543 175.357 16.1845 174.284 14.9434C173.21 13.6687 172.305 12.6121 171.567 11.7735C170.862 10.9014 170.426 10.3647 170.259 10.1635C170.024 9.86157 169.822 9.66032 169.655 9.55969C169.487 9.42551 169.336 9.35843 169.202 9.35843C169.034 9.35843 168.917 9.4926 168.85 9.76094C168.783 9.99575 168.749 10.2138 168.749 10.415C168.716 12.0587 168.682 13.9538 168.648 16.1006C168.615 18.2474 168.581 20.4612 168.548 22.7422C168.514 25.0231 168.497 27.2034 168.497 29.2831C168.497 30.1887 168.716 31.0273 169.152 31.7988C169.621 32.5703 170.477 33.0735 171.718 33.3083C172.288 33.4089 172.707 33.5263 172.975 33.6605C173.244 33.7946 173.378 33.9791 173.378 34.2139C173.378 34.4152 173.244 34.5494 172.975 34.6164C172.707 34.7171 172.355 34.7674 171.919 34.7674C171.013 34.7674 170.326 34.7338 169.856 34.6668C169.42 34.6332 169.017 34.5997 168.648 34.5661C168.313 34.5326 167.827 34.5158 167.189 34.5158C166.586 34.5158 166.116 34.5326 165.78 34.5661C165.445 34.5997 165.059 34.6332 164.623 34.6668C164.187 34.7338 163.516 34.7674 162.611 34.7674C162.175 34.7674 161.822 34.7171 161.554 34.6164C161.286 34.5494 161.152 34.4152 161.152 34.2139C161.152 33.9791 161.286 33.7946 161.554 33.6605C161.822 33.5263 162.242 33.3921 162.812 33.2579C163.785 32.9896 164.489 32.5032 164.925 31.7988C165.361 31.0609 165.63 30.172 165.73 29.1321C165.864 27.8575 165.999 26.1803 166.133 24.1007C166.267 21.9874 166.384 19.6394 166.485 17.0566C166.586 14.4402 166.636 11.7568 166.636 9.00622C166.636 7.22844 166.166 5.95379 165.227 5.1823C164.321 4.41081 163.131 3.79026 161.655 3.32066C161.521 3.25357 161.219 3.1194 160.749 2.91814C160.313 2.68333 160.095 2.41499 160.095 2.1131C160.095 1.81121 160.246 1.62672 160.548 1.55964C160.85 1.45901 161.084 1.40869 161.252 1.40869C162.225 1.44224 163.013 1.47578 163.617 1.50932C164.221 1.50932 164.757 1.52609 165.227 1.55964C165.697 1.59318 166.217 1.62672 166.787 1.66027C167.357 1.66027 168.095 1.66027 169.001 1.66027C169.303 1.66027 169.537 1.74412 169.705 1.91184C169.873 2.07956 170.04 2.28082 170.208 2.51562C170.342 2.71688 170.778 3.28711 171.516 4.22632C172.288 5.13198 173.227 6.28922 174.334 7.69804C175.474 9.07331 176.716 10.5828 178.057 12.2264C179.399 13.8364 180.741 15.4633 182.082 17.1069C183.424 18.717 184.665 20.2264 185.806 21.6352C186.946 23.0105 187.885 24.151 188.623 25.0566C189.395 25.9623 189.848 26.499 189.982 26.6667C190.116 26.8009 190.301 27.0021 190.535 27.2705C190.804 27.5388 191.039 27.673 191.24 27.673C191.542 27.673 191.709 27.3208 191.743 26.6164C191.743 26.1468 191.743 25.2579 191.743 23.9497C191.776 22.608 191.793 20.9979 191.793 19.1195C191.827 17.2075 191.844 15.1446 191.844 12.9308C191.844 10.7169 191.844 8.45276 191.844 6.13828C191.81 5.46742 191.458 4.86364 190.787 4.32695C190.116 3.79026 189.496 3.4716 188.925 3.37097C188.355 3.27034 187.835 3.13617 187.366 2.96845C186.896 2.80074 186.661 2.59948 186.661 2.36467C186.661 2.16341 186.896 2.02924 187.366 1.96216C187.835 1.86153 188.288 1.81121 188.724 1.81121C189.059 1.81121 189.378 1.81121 189.68 1.81121C190.015 1.81121 190.334 1.81121 190.636 1.81121C190.971 1.81121 191.29 1.81121 191.592 1.81121C192.397 1.81121 193.034 1.81121 193.504 1.81121C193.974 1.77767 194.477 1.74413 195.013 1.71058C195.584 1.67704 196.372 1.66027 197.378 1.66027C197.814 1.66027 198.166 1.71058 198.435 1.81121C198.703 1.8783 198.837 2.01247 198.837 2.21373C198.837 2.68333 198.284 3.01876 197.177 3.22002C195.936 3.45483 195.114 3.75672 194.711 4.12569C194.309 4.49466 194.074 5.09844 194.007 5.93702C194.007 6.10474 193.99 6.75883 193.957 7.8993C193.957 9.03977 193.957 10.4821 193.957 12.2264C193.957 13.9706 193.94 15.849 193.906 17.8616C193.906 19.8742 193.906 21.8868 193.906 23.8994C193.906 25.8784 193.906 27.6562 193.906 29.2328C193.906 30.0378 193.923 30.7757 193.957 31.4466C194.024 32.0839 194.074 32.6374 194.108 33.107C194.141 33.5431 194.158 33.8785 194.158 34.1133C194.158 34.65 194.041 34.9854 193.806 35.1196C193.605 35.2873 193.37 35.3712 193.101 35.3712Z" fill="#1D1B16"/>
<path d="M127.522 34.7675C127.086 34.7675 126.734 34.7004 126.465 34.5662C126.197 34.4656 126.063 34.3147 126.063 34.1134C126.063 33.8786 126.197 33.6773 126.465 33.5096C126.767 33.3084 127.186 33.1239 127.723 32.9562C128.595 32.6878 129.4 32.2853 130.138 31.7486C130.876 31.2119 131.513 30.323 132.05 29.0819C132.989 26.9352 133.845 24.9226 134.616 23.0442C135.421 21.1657 136.176 19.3209 136.88 17.5095C137.585 15.6982 138.306 13.8198 139.044 11.8743C139.815 9.89524 140.62 7.74848 141.459 5.434C141.627 4.96439 141.778 4.49479 141.912 4.02518C142.046 3.55558 142.13 3.05243 142.163 2.51574C142.465 2.41511 142.767 2.31448 143.069 2.21385C143.371 2.11322 143.673 1.96228 143.975 1.76102C144.277 1.55976 144.478 1.25787 144.579 0.855353C144.713 0.452834 144.83 0.184487 144.931 0.0503139C144.964 0.0167712 144.998 0 145.031 0C145.098 0 145.149 0.0335448 145.182 0.100632C145.249 0.234805 145.3 0.40252 145.333 0.603779C145.4 0.805037 145.467 1.0063 145.534 1.20755C146.34 3.75684 147.178 6.35643 148.05 9.00634C148.922 11.6563 149.761 14.2223 150.566 16.7045C151.405 19.1532 152.159 21.367 152.83 23.3461C153.535 25.2916 154.088 26.8681 154.491 28.0756C154.96 29.4174 155.463 30.4237 156 31.0945C156.537 31.7654 157.09 32.235 157.66 32.5033C158.264 32.7717 158.901 32.9729 159.572 33.1071C160.143 33.2077 160.562 33.3755 160.83 33.6103C161.099 33.8115 161.233 34.0296 161.233 34.2644C161.233 34.4656 161.099 34.5998 160.83 34.6669C160.562 34.734 160.21 34.7675 159.774 34.7675C159.304 34.7675 158.667 34.734 157.862 34.6669C157.057 34.6333 156.201 34.583 155.296 34.5159C154.39 34.4824 153.551 34.4656 152.78 34.4656C152.142 34.4656 151.488 34.4656 150.818 34.4656C150.147 34.4656 149.526 34.4824 148.956 34.5159C148.386 34.5159 147.899 34.5159 147.497 34.5159C147.061 34.5159 146.709 34.4656 146.44 34.365C146.172 34.2644 146.038 34.1134 146.038 33.9122C146.038 33.6774 146.205 33.4761 146.541 33.3084C146.876 33.1407 147.262 33.0233 147.698 32.9562C148.805 32.7885 149.593 32.5033 150.063 32.1008C150.532 31.6983 150.767 31.2287 150.767 30.692C150.767 30.1889 150.65 29.4677 150.415 28.5285C150.214 27.5557 149.962 26.5327 149.66 25.4593C149.358 24.3523 149.073 23.3796 148.805 22.541C148.738 22.2727 148.604 22.1217 148.402 22.0882C148.235 22.0211 147.916 21.9876 147.446 21.9876H137.937C137.803 21.9876 137.652 22.0546 137.484 22.1888C137.35 22.2894 137.216 22.5242 137.082 22.8932C136.981 23.2287 136.813 23.7653 136.578 24.5033C136.344 25.2077 136.109 25.9624 135.874 26.7675C135.639 27.5725 135.438 28.2937 135.27 28.931C135.103 29.5683 135.019 29.9708 135.019 30.1385C135.019 30.8765 135.304 31.497 135.874 32.0002C136.444 32.4698 137.132 32.8052 137.937 33.0065C139.044 33.3084 139.597 33.6438 139.597 34.0128C139.597 34.214 139.463 34.365 139.195 34.4656C138.926 34.5327 138.574 34.5662 138.138 34.5662C137.702 34.5662 137.065 34.5495 136.226 34.5159C135.388 34.4824 134.499 34.4656 133.56 34.4656C132.453 34.4656 131.379 34.5159 130.339 34.6166C129.3 34.7172 128.36 34.7675 127.522 34.7675ZM139.295 20.3272H147.094C147.564 20.3272 147.799 20.2433 147.799 20.0756C147.799 20.0085 147.782 19.9414 147.748 19.8743C147.748 19.7737 147.732 19.6731 147.698 19.5724L143.773 7.29564C143.572 6.69187 143.421 6.38998 143.321 6.38998C143.254 6.38998 143.119 6.67509 142.918 7.24533L138.339 19.5724C138.272 19.7737 138.239 19.9079 138.239 19.975C138.239 20.1427 138.323 20.2433 138.49 20.2769C138.692 20.3104 138.96 20.3272 139.295 20.3272Z" fill="#1D1B16"/>
<path d="M112.989 34.7673C112.553 34.7673 112.2 34.717 111.932 34.6163C111.664 34.5492 111.53 34.4151 111.53 34.2138C111.53 33.8113 112.083 33.5094 113.19 33.3081C114.465 33.0733 115.437 32.6876 116.108 32.1509C116.779 31.6142 117.115 30.7589 117.115 29.5849V6.84258C117.115 5.66857 116.863 4.82999 116.36 4.32684C115.89 3.82369 115.018 3.45472 113.743 3.21991C112.637 3.01866 112.083 2.68323 112.083 2.21362C112.083 2.01236 112.217 1.87819 112.486 1.8111C112.754 1.71047 113.106 1.66016 113.542 1.66016C114.448 1.66016 115.186 1.67693 115.756 1.71047C116.36 1.74402 116.93 1.77756 117.467 1.8111C118.003 1.8111 118.658 1.8111 119.429 1.8111C120.167 1.8111 120.771 1.8111 121.24 1.8111C121.71 1.77756 122.213 1.74402 122.75 1.71047C123.286 1.67693 124.008 1.66016 124.913 1.66016C125.349 1.66016 125.702 1.71047 125.97 1.8111C126.238 1.87819 126.372 2.01236 126.372 2.21362C126.372 2.44842 126.238 2.64968 125.97 2.8174C125.702 2.98511 125.282 3.11929 124.712 3.21991C123.471 3.45472 122.565 3.82369 121.995 4.32684C121.425 4.82999 121.14 5.66857 121.14 6.84258V29.5849C121.14 30.7589 121.492 31.6142 122.196 32.1509C122.901 32.6876 123.874 33.0733 125.115 33.3081C125.685 33.4088 126.104 33.5262 126.372 33.6604C126.641 33.7945 126.775 33.979 126.775 34.2138C126.775 34.4151 126.641 34.5492 126.372 34.6163C126.104 34.717 125.752 34.7673 125.316 34.7673C124.41 34.7673 123.655 34.7337 123.052 34.6666C122.481 34.6331 121.928 34.5996 121.391 34.566C120.855 34.5325 120.201 34.5157 119.429 34.5157C118.59 34.5157 117.853 34.5325 117.215 34.566C116.611 34.5996 115.974 34.6331 115.303 34.6666C114.666 34.7337 113.894 34.7673 112.989 34.7673Z" fill="#1D1B16"/>
<path d="M108.265 35.5724C107.326 35.5724 106.437 35.4885 105.598 35.3208C104.76 35.1867 103.988 34.9183 103.284 34.5158C102.579 34.1133 101.925 33.5598 101.321 32.8554C100.516 31.8491 99.7449 30.8931 99.007 29.9875C98.269 29.0483 97.4808 27.9749 96.6422 26.7673C95.8372 25.5598 94.8476 24.0168 93.6736 22.1384C93.1705 21.2998 92.4493 20.6457 91.5101 20.1761C90.7721 19.8071 90.0342 19.5555 89.2962 19.4214C88.5918 19.2536 88.0048 19.153 87.5352 19.1195C87.2669 19.0859 87.0656 19.1698 86.9314 19.371C86.8308 19.5723 86.7805 19.8239 86.7805 20.1258V28.9812C86.7805 30.0545 87.0321 30.9938 87.5352 31.7988C88.0384 32.5703 88.9105 33.0734 90.1516 33.3082C90.7218 33.4089 91.1411 33.5263 91.4095 33.6604C91.6778 33.7946 91.812 33.9791 91.812 34.2139C91.812 34.4152 91.6778 34.5493 91.4095 34.6164C91.1411 34.717 90.7889 34.7674 90.3529 34.7674C89.4472 34.7674 88.7428 34.7338 88.2396 34.6667C87.77 34.5996 87.334 34.5493 86.9314 34.5158C86.5625 34.4487 86.0593 34.4152 85.422 34.4152C84.5834 34.4152 83.8287 34.4487 83.1578 34.5158C82.5205 34.5493 81.8664 34.5996 81.1956 34.6667C80.5582 34.7338 79.7868 34.7674 78.8811 34.7674C78.445 34.7674 78.0928 34.717 77.8245 34.6164C77.5561 34.5493 77.422 34.4152 77.422 34.2139C77.422 33.8114 77.9754 33.5095 79.0823 33.3082C80.357 33.0734 81.2794 32.6877 81.8497 32.151C82.4534 31.6143 82.7553 30.7254 82.7553 29.4843V8.05022C82.7553 6.77558 82.6882 5.8196 82.5541 5.18228C82.4534 4.51141 82.1851 4.04181 81.749 3.77346C81.3465 3.50512 80.6589 3.32063 79.6861 3.22C79.1159 3.15291 78.6966 3.03551 78.4282 2.8678C78.1599 2.66654 78.0257 2.44851 78.0257 2.21371C78.0257 2.01245 78.1599 1.87827 78.4282 1.81119C78.6966 1.71056 79.0488 1.66024 79.4849 1.66024C80.3905 1.66024 81.0614 1.66024 81.4974 1.66024C81.9671 1.66024 82.4031 1.67701 82.8056 1.71056C83.2082 1.71056 83.7448 1.71056 84.4157 1.71056C85.053 1.71056 85.6233 1.69379 86.1264 1.66024C86.6296 1.59316 87.183 1.54284 87.7868 1.5093C88.4241 1.47576 89.2292 1.45898 90.2019 1.45898C93.8917 1.45898 96.6925 2.14662 98.6045 3.52189C100.55 4.89716 101.523 6.96006 101.523 9.71061C101.523 11.22 101.221 12.5282 100.617 13.6352C100.013 14.7085 99.2586 15.6142 98.3529 16.3522C97.4472 17.0901 96.5248 17.6939 95.5856 18.1635C95.4514 18.197 95.3843 18.2809 95.3843 18.4151C95.4179 18.5157 95.485 18.6499 95.5856 18.8176C96.6254 20.3941 97.6149 21.8868 98.5542 23.2956C99.5269 24.7044 100.584 26.0797 101.724 27.4214C102.864 28.7631 104.223 30.1552 105.799 31.5975C106.672 32.369 107.56 32.8386 108.466 33.0063C109.372 33.1741 110.412 33.2579 111.586 33.2579C112.089 33.2579 112.34 33.4424 112.34 33.8114C112.34 34.3145 112.089 34.6835 111.586 34.9183C111.083 35.1867 110.512 35.3544 109.875 35.4215C109.238 35.5221 108.701 35.5724 108.265 35.5724ZM89.4472 17.9622C90.9902 17.9622 92.3151 17.61 93.422 16.9056C94.5625 16.2012 95.4346 15.2788 96.0384 14.1383C96.6757 12.9978 96.9944 11.7903 96.9944 10.5156C96.9944 9.14037 96.8099 7.8825 96.4409 6.74203C96.1055 5.60157 95.4011 4.6959 94.3277 4.02504C93.2879 3.32063 91.7113 2.96843 89.5981 2.96843C88.5247 2.96843 87.8203 3.32063 87.4849 4.02504C87.1495 4.6959 86.9482 5.90345 86.8811 7.6477C86.8476 8.48628 86.814 9.62675 86.7805 11.0691C86.7805 12.4779 86.7805 14.1886 86.7805 16.2012C86.7805 17.0398 87.0153 17.5429 87.4849 17.7107C87.9545 17.8784 88.6086 17.9622 89.4472 17.9622Z" fill="#1D1B16"/>
<path d="M44.2451 34.7675C43.809 34.7675 43.4568 34.7004 43.1885 34.5662C42.9202 34.4656 42.786 34.3147 42.786 34.1134C42.786 33.8786 42.9202 33.6773 43.1885 33.5096C43.4904 33.3084 43.9097 33.1239 44.4464 32.9562C45.3185 32.6878 46.1235 32.2853 46.8615 31.7486C47.5994 31.2119 48.2367 30.323 48.7734 29.0819C49.7126 26.9352 50.568 24.9226 51.3395 23.0442C52.1445 21.1657 52.8992 19.3209 53.6037 17.5095C54.3081 15.6982 55.0292 13.8198 55.7672 11.8743C56.5387 9.89524 57.3437 7.74848 58.1823 5.434C58.35 4.96439 58.501 4.49479 58.6351 4.02518C58.7693 3.55558 58.8532 3.05243 58.8867 2.51574C59.1886 2.41511 59.4905 2.31448 59.7924 2.21385C60.0943 2.11322 60.3961 1.96228 60.698 1.76102C60.9999 1.55976 61.2012 1.25787 61.3018 0.855353C61.436 0.452834 61.5534 0.184487 61.654 0.0503139C61.6876 0.0167712 61.7211 0 61.7547 0C61.8217 0 61.872 0.0335448 61.9056 0.100632C61.9727 0.234805 62.023 0.40252 62.0565 0.603779C62.1236 0.805037 62.1907 1.0063 62.2578 1.20755C63.0628 3.75684 63.9014 6.35643 64.7735 9.00634C65.6457 11.6563 66.4842 14.2223 67.2893 16.7045C68.1278 19.1532 68.8826 21.367 69.5534 23.3461C70.2578 25.2916 70.8113 26.8681 71.2138 28.0756C71.6834 29.4174 72.1866 30.4237 72.7233 31.0945C73.26 31.7654 73.8134 32.235 74.3837 32.5033C74.9874 32.7717 75.6247 32.9729 76.2956 33.1071C76.8658 33.2077 77.2851 33.3755 77.5535 33.6103C77.8218 33.8115 77.956 34.0296 77.956 34.2644C77.956 34.4656 77.8218 34.5998 77.5535 34.6669C77.2851 34.734 76.9329 34.7675 76.4969 34.7675C76.0273 34.7675 75.3899 34.734 74.5849 34.6669C73.7799 34.6333 72.9245 34.583 72.0189 34.5159C71.1132 34.4824 70.2746 34.4656 69.5031 34.4656C68.8658 34.4656 68.2117 34.4656 67.5408 34.4656C66.87 34.4656 66.2494 34.4824 65.6792 34.5159C65.109 34.5159 64.6226 34.5159 64.2201 34.5159C63.784 34.5159 63.4318 34.4656 63.1635 34.365C62.8951 34.2644 62.7609 34.1134 62.7609 33.9122C62.7609 33.6774 62.9287 33.4761 63.2641 33.3084C63.5995 33.1407 63.9853 33.0233 64.4213 32.9562C65.5283 32.7885 66.3165 32.5033 66.7861 32.1008C67.2557 31.6983 67.4905 31.2287 67.4905 30.692C67.4905 30.1889 67.3731 29.4677 67.1383 28.5285C66.9371 27.5557 66.6855 26.5327 66.3836 25.4593C66.0817 24.3523 65.7966 23.3796 65.5283 22.541C65.4612 22.2727 65.327 22.1217 65.1257 22.0882C64.958 22.0211 64.6394 21.9876 64.1698 21.9876H54.6603C54.5261 21.9876 54.3751 22.0546 54.2074 22.1888C54.0733 22.2894 53.9391 22.5242 53.8049 22.8932C53.7043 23.2287 53.5366 23.7653 53.3018 24.5033C53.067 25.2077 52.8322 25.9624 52.5974 26.7675C52.3626 27.5725 52.1613 28.2937 51.9936 28.931C51.8259 29.5683 51.742 29.9708 51.742 30.1385C51.742 30.8765 52.0271 31.497 52.5974 32.0002C53.1676 32.4698 53.8552 32.8052 54.6603 33.0065C55.7672 33.3084 56.3207 33.6438 56.3207 34.0128C56.3207 34.214 56.1865 34.365 55.9181 34.4656C55.6498 34.5327 55.2976 34.5662 54.8615 34.5662C54.4255 34.5662 53.7881 34.5495 52.9496 34.5159C52.111 34.4824 51.2221 34.4656 50.2829 34.4656C49.176 34.4656 48.1026 34.5159 47.0627 34.6166C46.0229 34.7172 45.0837 34.7675 44.2451 34.7675ZM56.0188 20.3272H63.8175C64.2872 20.3272 64.522 20.2433 64.522 20.0756C64.522 20.0085 64.5052 19.9414 64.4716 19.8743C64.4716 19.7737 64.4549 19.6731 64.4213 19.5724L60.4968 7.29564C60.2955 6.69187 60.1446 6.38998 60.0439 6.38998C59.9769 6.38998 59.8427 6.67509 59.6414 7.24533L55.0628 19.5724C54.9957 19.7737 54.9622 19.9079 54.9622 19.975C54.9622 20.1427 55.046 20.2433 55.2137 20.2769C55.415 20.3104 55.6833 20.3272 56.0188 20.3272Z" fill="#1D1B16"/>
<path d="M1.45913 34.7673C1.02307 34.7673 0.670863 34.717 0.402518 34.6164C0.134173 34.5493 0 34.4151 0 34.2139C0 33.9791 0.134173 33.7946 0.402518 33.6604C0.670863 33.5262 1.09015 33.4088 1.66039 33.3082C2.49897 33.1405 3.1866 32.738 3.72329 32.1007C4.25998 31.4633 4.61219 30.5577 4.7799 29.3837C5.18242 26.3648 5.53462 23.4968 5.83651 20.7798C6.1384 18.0293 6.3732 15.5639 6.54092 13.3836C6.74218 11.1697 6.84281 9.35838 6.84281 7.94957C6.84281 7.68122 6.84281 7.39611 6.84281 7.09422C6.84281 6.79233 6.82604 6.52398 6.79249 6.28918C6.75895 6.02083 6.70864 5.75249 6.64155 5.48414C6.57446 5.18225 6.3732 4.89714 6.03777 4.62879C5.43399 4.12564 4.84699 3.79021 4.27676 3.6225C3.70652 3.42124 3.03566 3.25352 2.26416 3.11935C1.92873 3.05226 1.66039 2.93486 1.45913 2.76714C1.25787 2.56589 1.15724 2.34785 1.15724 2.11305C1.15724 1.84471 1.30818 1.69376 1.61007 1.66022C1.9455 1.59313 2.36479 1.55959 2.86794 1.55959C3.20337 1.55959 3.70652 1.57636 4.37738 1.60991C5.08179 1.64345 5.83651 1.69376 6.64155 1.76085C7.44659 1.82794 8.18454 1.87825 8.8554 1.9118C9.55981 1.94534 10.0797 1.96211 10.4152 1.96211C10.65 1.96211 10.8512 2.0292 11.0189 2.16337C11.1867 2.29754 11.3041 2.4988 11.3711 2.76714C11.5389 3.37092 11.7066 4.00824 11.8743 4.67911C12.042 5.34997 12.2433 6.00406 12.4781 6.64138L20.4278 26.8176C20.5284 27.0524 20.7129 27.2034 20.9813 27.2704C21.2496 27.304 21.4509 27.2034 21.585 26.9686L31.497 6.33949C31.6648 5.76926 31.8325 5.13194 32.0002 4.42753C32.1679 3.72313 32.3021 3.10258 32.4027 2.56589C32.5033 2.12983 32.6711 1.9118 32.9059 1.9118H34.7172C35.7235 1.9118 36.7801 1.84471 37.887 1.71054C39.0275 1.57636 39.8828 1.50928 40.4531 1.50928C40.6208 1.50928 40.8388 1.54282 41.1072 1.60991C41.3755 1.64345 41.5097 1.77762 41.5097 2.01242C41.5097 2.24723 41.409 2.43171 41.2078 2.56589C41.0401 2.70006 40.7046 2.86777 40.2015 3.06904C39.7654 3.23675 39.2791 3.42124 38.7424 3.6225C38.2057 3.82376 37.7025 4.02501 37.2329 4.22627C36.8975 4.36044 36.6124 4.59525 36.3776 4.93068C36.1428 5.23257 36.0254 5.568 36.0254 5.93698C36.0254 8.285 36.0589 10.4988 36.126 12.5785C36.2266 14.6247 36.3273 16.6037 36.4279 18.5157C36.5285 20.3941 36.6459 22.2557 36.7801 24.1006C36.9143 25.9455 37.0317 27.8239 37.1323 29.7359C37.1994 30.7757 37.5348 31.5807 38.1386 32.151C38.7424 32.6877 39.6648 33.0734 40.9059 33.3082C41.4761 33.4088 41.8954 33.5262 42.1638 33.6604C42.4321 33.7946 42.5663 33.9791 42.5663 34.2139C42.5663 34.4151 42.4321 34.5493 42.1638 34.6164C41.8954 34.717 41.5432 34.7673 41.1072 34.7673C40.2015 34.7673 39.4468 34.7338 38.843 34.6667C38.2728 34.6332 37.7193 34.5996 37.1826 34.5661C36.6459 34.5325 35.9918 34.5158 35.2203 34.5158C34.5495 34.5158 33.9792 34.5325 33.5096 34.5661C33.0736 34.5996 32.5872 34.6332 32.0505 34.6667C31.5474 34.7338 30.843 34.7673 29.9373 34.7673C29.5012 34.7673 29.149 34.717 28.8807 34.6164C28.6123 34.5493 28.4782 34.4151 28.4782 34.2139C28.4782 33.9791 28.6123 33.7946 28.8807 33.6604C29.149 33.4927 29.5683 33.3753 30.1385 33.3082C31.1113 33.174 31.7822 32.8386 32.1511 32.3019C32.5201 31.7317 32.7046 30.8596 32.7046 29.6855C32.7046 27.2704 32.6711 25.0901 32.604 23.1446C32.5704 21.1991 32.5033 19.2872 32.4027 17.4087C32.3021 15.4968 32.2015 13.4171 32.1008 11.1697C32.0673 10.8007 31.9666 10.633 31.7989 10.6666C31.6312 10.6666 31.4635 10.8343 31.2958 11.1697L19.7234 34.7673C19.6563 34.9351 19.5054 35.0189 19.2706 35.0189C19.0358 35.0525 18.8848 34.9518 18.8177 34.717C17.5095 30.7925 16.1007 26.935 14.5913 23.1446C13.1154 19.3207 11.4382 15.2117 9.55981 10.8175C9.49272 10.6498 9.37532 10.5659 9.2076 10.5659C9.03989 10.5659 8.93926 10.6498 8.90571 10.8175C8.60382 13.1655 8.31871 15.3291 8.05036 17.3081C7.81556 19.2536 7.63107 21.1824 7.4969 23.0943C7.36273 25.0063 7.29564 27.1027 7.29564 29.3837C7.29564 30.2893 7.58076 31.1279 8.15099 31.8994C8.72123 32.6373 9.52626 33.107 10.5661 33.3082C11.1363 33.4088 11.5556 33.5262 11.824 33.6604C12.0923 33.7946 12.2265 33.9791 12.2265 34.2139C12.2265 34.4151 12.0923 34.5493 11.824 34.6164C11.5556 34.717 11.2034 34.7673 10.7674 34.7673C9.86169 34.7673 9.17406 34.7338 8.70445 34.6667C8.26839 34.6332 7.86587 34.5996 7.4969 34.5661C7.16147 34.5325 6.67509 34.5158 6.03777 34.5158C5.43399 34.5158 4.96439 34.5325 4.62896 34.5661C4.29353 34.5996 3.90778 34.6332 3.47172 34.6667C3.03566 34.7338 2.36479 34.7673 1.45913 34.7673Z" fill="#1D1B16"/>
</svg>
