<svg width="87" height="66" viewBox="0 0 87 66" fill="none" xmlns="http://www.w3.org/2000/svg">
<path d="M0 65.954V47.0836C0 41.6568 1.01752 36.0141 3.05257 30.1557C5.14928 24.2355 7.98601 18.6546 11.5628 13.4128C15.2012 8.10935 19.2713 3.63842 23.773 0L39.3134 10.0827C35.675 15.5712 32.6224 21.3063 30.1557 27.2881C27.7506 33.2082 26.5789 39.745 26.6406 46.8985V65.954H0ZM46.8985 65.954V47.0836C46.8985 41.6568 47.9161 36.0141 49.9511 30.1557C52.0478 24.2355 54.8846 18.6546 58.4613 13.4128C62.0997 8.10935 66.1698 3.63842 70.6716 0L86.2119 10.0827C82.5735 15.5712 79.5209 21.3063 77.0542 27.2881C74.6492 33.2082 73.4775 39.745 73.5391 46.8985V65.954H46.8985Z" fill="#829EA1"/>
</svg>
