<svg width="87" height="66" viewBox="0 0 87 66" fill="none" xmlns="http://www.w3.org/2000/svg">
<path d="M86.2119 -0.000114441L86.2119 18.8703C86.2119 24.2971 85.1944 29.9397 83.1593 35.7982C81.0626 41.7183 78.2259 47.2993 74.6492 52.5411C71.0107 57.8445 66.9407 62.3154 62.4389 65.9539L46.8985 55.8711C50.537 50.3827 53.5895 44.6475 56.0562 38.6657C58.4613 32.7456 59.633 26.2088 59.5713 19.0553L59.5713 -0.00011677L86.2119 -0.000114441ZM39.3134 -0.000118541L39.3134 18.8703C39.3134 24.2971 38.2959 29.9397 36.2608 35.7982C34.1641 41.7183 31.3274 47.2993 27.7506 52.5411C24.1122 57.8445 20.0421 62.3154 15.5403 65.9539L8.8146e-07 55.8711C3.63841 50.3827 6.69098 44.6475 9.1577 38.6657C11.5628 32.7456 12.7345 26.2088 12.6728 19.0553L12.6728 -0.00012087L39.3134 -0.000118541Z" fill="#829EA1"/>
</svg>
